<svg height="512" viewBox="0 0 48 58" width="512" xmlns="http://www.w3.org/2000/svg"><g id="Page-1" fill="none" fill-rule="evenodd"><g id="019---Folded-Clothing" fill-rule="nonzero"><path id="Shape" d="m38 53v2c0 1.6568542-1.3431458 3-3 3h-32c-1.65685425 0-3-1.3431458-3-3v-37c0-1.04 1.9-1.99 5-2.7z" fill="#2980ba"/><path id="Shape" d="m43 48v2c0 1.6568542-1.3431458 3-3 3h-32c-1.65685425 0-3-1.3431458-3-3v-37c0-1.04 1.9-1.99 5-2.7z" fill="#5d4c72"/><path id="Shape" d="m38.51 4.54-.41-3.65c-.0079264-.08689859-.0316485-.17162045-.07-.25-.1458325-.38668946-.51673-.6419307-.93-.64h-16.2c-.3830811-.00318997-.7336187.21492234-.9.56-.0541287.10259342-.0880753.21461749-.1.33l-.41 3.65c-5.67.69-9.49 1.98-9.49 3.46v37c0 1.6568542 1.3431458 3 3 3h32c1.6568542 0 3-1.3431458 3-3v-37c0-1.48-3.82-2.77-9.49-3.46z" fill="#26b99a"/><path id="Shape" d="m48 8v37c0 1.6568542-1.3431458 3-3 3h-20v-32.49c1.3036919-.3523496 2.6496044-.5239534 4-.51 5.08 0 7.26 2.1 9.59 2.79.3216622.0876479.6658555.010915.9198289-.2050623.2539733-.2159774.3850049-.5433728.3501711-.8749377l-1.35-12.17c5.67.69 9.49 1.98 9.49 3.46z" fill="#14a085"/><path id="Shape" d="m39.86 16.71c.0348338.3315649-.0961978.6589603-.3501711.8749377-.2539734.2159773-.5981667.2927102-.9198289.2050623-2.33-.69-4.51-2.79-9.59-2.79 7.08 0 8.74-11.49 9.03-14.36.0383515.07837955.0620736.16310141.07.25l.41 3.65z" fill="#81ccb8"/><path id="Shape" d="m38.03.64c-.29 2.87-1.95 14.36-9.03 14.36-5.19 0-7.46-6.17-8.42-10.59-.2606489-1.1410344-.4543132-2.29634188-.58-3.46v-.39c.1663813-.34507766.5169189-.56318997.9-.56h16.2c.41327-.0019307.7841675.25331054.93.64z" fill="#33907c"/><path id="Shape" d="m29 15c-1.3503956-.0139534-2.6963081.1576504-4 .51-2.45.66-3.99 1.81-5.59 2.28-.3216622.0876479-.6658555.010915-.9198289-.2050623-.2539733-.2159774-.3850049-.5433728-.3501711-.8749377l1.35-12.17.41-3.65c.0119247-.11538251.0458713-.22740658.1-.33v.39c.1256868 1.16365812.3193511 2.3189656.58 3.46.96 4.42 3.23 10.59 8.42 10.59z" fill="#81ccb8"/><g fill="#bdc3c7"><circle id="Oval" cx="31" cy="23" r="2"/><circle id="Oval" cx="31" cy="32" r="2"/><circle id="Oval" cx="31" cy="41" r="2"/></g></g></g></svg>