<svg id="Filled" height="512" viewBox="0 0 512 512" width="512" xmlns="http://www.w3.org/2000/svg"><path d="m320 168v32l32 240h96l32-240v-32z" fill="#fbe36a"/><path d="m128 48h48v64h-48z" fill="#c3c6c7"/><path d="m240 56h-128l8-24 120-8z" fill="#9aa3a8"/><path d="m200 168h-96l8-64h80z" fill="#9aa3a8"/><path d="m320 168h160v32h-160z" fill="#f7cc38"/><path d="m352 440h96a0 0 0 0 1 0 0v32a16 16 0 0 1 -16 16h-64a16 16 0 0 1 -16-16v-32a0 0 0 0 1 0 0z" fill="#f7cc38"/><path d="m209.992 488h-115.984a16 16 0 0 1 -15.859-13.885l-30.149-226.115a96 96 0 0 1 96-96h16a96 96 0 0 1 96 96l-30.149 226.115a16 16 0 0 1 -15.859 13.885z" fill="#c3c6c7"/><path d="m184 344h176v48h-176z" fill="#3cb4d7"/><path d="m184 344h176s-2-24-24-24c-49.805 0-40-24-40-24-60.5 0-62.5 48-112 48z" fill="#6ed2f0"/><ellipse cx="400" cy="264" fill="#f7cc38" rx="32" ry="16"/><path d="m104 224h96v48h-96z" fill="#9aa3a8"/><rect fill="#6ed2f0" height="112" rx="14.967" width="224" x="160" y="376"/><circle cx="272" cy="432" fill="#3cb4d7" r="24"/><path d="m40 248a7.966 7.966 0 0 0 .07 1.058l30.149 226.114a24.074 24.074 0 0 0 23.789 20.828h337.992a24.027 24.027 0 0 0 24-24v-31.47l31.93-239.472c0-.035 0-.069.008-.1.019-.162.029-.326.039-.491.007-.12.016-.239.018-.359 0-.035 0-.069 0-.1v-32.008a8 8 0 0 0 -8-8h-159.995a8 8 0 0 0 -8 8v32 .1c0 .12.011.239.018.359.01.165.02.329.039.491 0 .034 0 .068.008.1l14.749 110.615c-16.084-1.222-21.056-5.575-22.512-7.616a5.983 5.983 0 0 1 -.861-5.118 7.641 7.641 0 0 0 -.6-7.417 7.971 7.971 0 0 0 -6.841-3.514c-15.917 0-28.185 3.1-38.29 7.706l6.22-46.648a7.966 7.966 0 0 0 .07-1.058 104.111 104.111 0 0 0 -56.755-92.635 7.986 7.986 0 0 0 .646-4.68l-8-48a8 8 0 0 0 -7.891-6.685h-8v-32h56a8 8 0 0 0 8-8v-32a8 8 0 0 0 -8.532-7.982l-120 8a8 8 0 0 0 -7.057 5.452l-8 24a8 8 0 0 0 7.589 10.53h8v32h-8a8 8 0 0 0 -7.891 6.685l-8 48a7.986 7.986 0 0 0 .646 4.68 104.111 104.111 0 0 0 -56.755 92.635zm328 232h-193.033a6.974 6.974 0 0 1 -6.967-6.967v-82.066a6.974 6.974 0 0 1 6.967-6.967h194.066a6.974 6.974 0 0 1 6.967 6.967v82.066a6.974 6.974 0 0 1 -6.967 6.967zm-176-128h160v16h-160zm248 120a8.009 8.009 0 0 1 -8 8h-41.083a22.9 22.9 0 0 0 1.083-6.967v-25.033h48zm1-40h-49v-41.033a22.993 22.993 0 0 0 -22.967-22.967h-1.033v-24c0-.224-.015-.444-.033-.664 0-.031-.008-.088-.013-.138v-.027a41.974 41.974 0 0 0 -4.673-14.982 29.579 29.579 0 0 0 -20.181-15.445l-13.963-104.744h141.726zm-113-256h144v16h-144zm-37.082 136.823c6.765 10.071 21.932 15.177 45.082 15.177 6 0 10.133 2.369 13.02 7.457.1.181.2.362.292.543h-120.291c3.414-2.616 6.665-5.363 9.888-8.09 13.026-11.023 25.406-21.5 48.606-23.549a21.459 21.459 0 0 0 3.403 8.462zm-165.027-273.198 106.109-7.074v15.449h-108.9zm10.109 24.375h32v32h-32zm-22.556 80 5.333-32h66.446l5.333 32zm30.556 16h16a88.1 88.1 0 0 1 88 87.48l-7.844 58.82c-4.117 3.081-7.91 6.286-11.583 9.394-12.873 10.897-23.994 20.306-44.573 20.306a8 8 0 0 0 -8 8v24h-1.033a22.993 22.993 0 0 0 -22.967 22.967v82.066a22.9 22.9 0 0 0 1.083 6.967h-59.075a8.026 8.026 0 0 1 -7.93-6.943l-30.078-225.577a88.1 88.1 0 0 1 88-87.48z"/><path d="m272 400a32 32 0 1 0 32 32 32.036 32.036 0 0 0 -32-32zm0 48a16 16 0 1 1 16-16 16.019 16.019 0 0 1 -16 16z"/><path d="m400 288c22.8 0 40-10.317 40-24s-17.2-24-40-24-40 10.317-40 24 17.2 24 40 24zm0-32c15.488 0 24 6.009 24 8s-8.512 8-24 8-24-6.009-24-8 8.512-8 24-8z"/><path d="m104 280h96a8 8 0 0 0 8-8v-48a8 8 0 0 0 -8-8h-96a8 8 0 0 0 -8 8v48a8 8 0 0 0 8 8zm8-48h80v32h-80z"/></svg>